<svg xmlns="http://www.w3.org/2000/svg" viewBox="0 0 32 32" width="32" height="32">
  <!-- Background circle with gradient -->
  <defs>
    <linearGradient id="faviconGradient" x1="0%" y1="0%" x2="100%" y2="100%">
      <stop offset="0%" style="stop-color:#3182ce;stop-opacity:1" />
      <stop offset="100%" style="stop-color:#1e40af;stop-opacity:1" />
    </linearGradient>
    <filter id="shadow" x="-20%" y="-20%" width="140%" height="140%">
      <feDropShadow dx="0" dy="2" stdDeviation="1" flood-color="rgba(0,0,0,0.3)"/>
    </filter>
  </defs>
  
  <!-- Background circle -->
  <circle cx="16" cy="16" r="15" fill="url(#faviconGradient)" filter="url(#shadow)"/>
  
  <!-- Inner circle for depth -->
  <circle cx="16" cy="16" r="13" fill="none" stroke="rgba(255,255,255,0.2)" stroke-width="1"/>
  
  <!-- Letter G - Clean and readable -->
  <path d="M7 8h5c1.1 0 2 0.9 2 2v2c0 1.1-0.9 2-2 2H9v2h3c1.1 0 2 0.9 2 2v2c0 1.1-0.9 2-2 2H7V8z" 
        fill="white"/>
  
  <!-- Letter S - Clean and readable -->
  <path d="M17 8c-1.1 0-2 0.9-2 2v2c0 1.1 0.9 2 2 2s2-0.9 2-2v-2c0-1.1-0.9-2-2-2z M17 16c-1.1 0-2 0.9-2 2v2c0 1.1 0.9 2 2 2s2-0.9 2-2v-2c0-1.1-0.9-2-2-2z" 
        fill="white"/>
</svg> 